<svg width="27" height="21" viewBox="0 0 27 21" fill="none" xmlns="http://www.w3.org/2000/svg">
<path d="M24.4688 0H2.53125C1.13906 0 0 1.13906 0 2.53125V17.7188C0 19.1109 1.13906 20.25 2.53125 20.25H24.4688C25.8609 20.25 27 19.1109 27 17.7188V2.53125C27 1.13906 25.8609 0 24.4688 0ZM2.53125 1.6875H24.4688C24.9261 1.6875 25.3125 2.07394 25.3125 2.53125V5.0625H1.6875V2.53125C1.6875 2.07394 2.07394 1.6875 2.53125 1.6875ZM24.4688 18.5625H2.53125C2.30842 18.5594 2.09558 18.4696 1.93801 18.312C1.78043 18.1544 1.69056 17.9416 1.6875 17.7188V10.125H25.3125V17.7188C25.3125 18.1761 24.9261 18.5625 24.4688 18.5625ZM3.375 13.5H5.0625V16.875H3.375V13.5ZM6.75 13.5H8.4375V16.875H6.75V13.5ZM10.125 13.5H11.8125V16.875H10.125V13.5Z" fill="white"/>
</svg>
