<svg width="27" height="27" viewBox="0 0 27 27" fill="none" xmlns="http://www.w3.org/2000/svg">
<path d="M13.0781 1.6875C6.78786 1.6875 1.6875 6.78786 1.6875 13.0781C1.6875 19.3684 6.78786 24.4688 13.0781 24.4688C19.3684 24.4688 24.4688 19.3684 24.4688 13.0781C24.4688 6.78786 19.3684 1.6875 13.0781 1.6875ZM13.0781 22.5364C7.85573 22.5364 3.61984 18.3005 3.61984 13.0781C3.61984 7.85573 7.85573 3.61984 13.0781 3.61984C18.3005 3.61984 22.5364 7.85573 22.5364 13.0781C22.5364 18.3005 18.3005 22.5364 13.0781 22.5364Z" fill="#FA5F21"/>
<path d="M12 8.26562C12 8.60129 12.1333 8.92321 12.3707 9.16056C12.608 9.39791 12.93 9.53125 13.2656 9.53125C13.6013 9.53125 13.9232 9.39791 14.1606 9.16056C14.3979 8.92321 14.5312 8.60129 14.5312 8.26562C14.5312 7.92996 14.3979 7.60804 14.1606 7.37069C13.9232 7.13334 13.6013 7 13.2656 7C12.93 7 12.608 7.13334 12.3707 7.37069C12.1333 7.60804 12 7.92996 12 8.26562V8.26562ZM13.8984 11.2188H12.6328C12.5168 11.2188 12.4219 11.3137 12.4219 11.4297V18.6016C12.4219 18.7176 12.5168 18.8125 12.6328 18.8125H13.8984C14.0145 18.8125 14.1094 18.7176 14.1094 18.6016V11.4297C14.1094 11.3137 14.0145 11.2188 13.8984 11.2188Z" fill="#FA5F21" fill-opacity="0.95"/>
</svg>
