<svg width="26" height="26" viewBox="0 0 26 26" fill="none" xmlns="http://www.w3.org/2000/svg">
<path d="M18.625 4.44062V3.5C18.6213 2.80469 18.2645 2.13869 17.6324 1.64703C17.0003 1.15537 16.144 0.877879 15.25 0.875H10.75C9.85603 0.877879 8.99974 1.15537 8.3676 1.64703C7.73547 2.13869 7.3787 2.80469 7.375 3.5V4.44062C5.50137 4.65096 3.78786 5.3792 2.54824 6.49199C1.30862 7.60478 0.625866 9.02763 0.625 10.5V23.625C0.625 24.0891 0.862053 24.5342 1.28401 24.8624C1.70597 25.1906 2.27826 25.375 2.875 25.375H23.125C23.7217 25.375 24.294 25.1906 24.716 24.8624C25.1379 24.5342 25.375 24.0891 25.375 23.625V10.5C25.3741 9.02763 24.6914 7.60478 23.4518 6.49199C22.2121 5.3792 20.4986 4.65096 18.625 4.44062ZM10.75 2.625H15.25C15.5484 2.625 15.8345 2.71719 16.0455 2.88128C16.2565 3.04538 16.375 3.26794 16.375 3.5V4.375H9.625V3.5C9.625 3.26794 9.74353 3.04538 9.9545 2.88128C10.1655 2.71719 10.4516 2.625 10.75 2.625ZM18.625 17.5H7.375V16.625C7.375 16.3929 7.49353 16.1704 7.7045 16.0063C7.91548 15.8422 8.20163 15.75 8.5 15.75H17.5C17.7984 15.75 18.0845 15.8422 18.2955 16.0063C18.5065 16.1704 18.625 16.3929 18.625 16.625V17.5ZM7.375 19.25H14.125V20.125C14.125 20.3571 14.2435 20.5796 14.4545 20.7437C14.6655 20.9078 14.9516 21 15.25 21C15.5484 21 15.8345 20.9078 16.0455 20.7437C16.2565 20.5796 16.375 20.3571 16.375 20.125V19.25H18.625V23.625H7.375V19.25ZM23.125 23.625H20.875V16.625C20.8713 15.9297 20.5145 15.2637 19.8824 14.772C19.2503 14.2804 18.394 14.0029 17.5 14H8.5C7.60603 14.0029 6.74974 14.2804 6.1176 14.772C5.48547 15.2637 5.1287 15.9297 5.125 16.625V23.625H2.875V10.5C2.875 9.33968 3.46763 8.22688 4.52252 7.40641C5.57742 6.58594 7.00816 6.125 8.5 6.125H17.5C18.9918 6.125 20.4226 6.58594 21.4775 7.40641C22.5324 8.22688 23.125 9.33968 23.125 10.5V23.625ZM16.375 9.625C16.375 9.85706 16.2565 10.0796 16.0455 10.2437C15.8345 10.4078 15.5484 10.5 15.25 10.5H10.75C10.4516 10.5 10.1655 10.4078 9.9545 10.2437C9.74353 10.0796 9.625 9.85706 9.625 9.625C9.625 9.39294 9.74353 9.17038 9.9545 9.00628C10.1655 8.84219 10.4516 8.75 10.75 8.75H15.25C15.5484 8.75 15.8345 8.84219 16.0455 9.00628C16.2565 9.17038 16.375 9.39294 16.375 9.625Z" fill="#FA5F21"/>
</svg>
